<?xml version="1.0" encoding="UTF-8"?>
<svg version="1.1" xmlns="http://www.w3.org/2000/svg" width="512" height="512">
<path d="M0 0 C168.96 0 337.92 0 512 0 C512 168.96 512 337.92 512 512 C343.04 512 174.08 512 0 512 C0 343.04 0 174.08 0 0 Z " fill="#FCFEFE" transform="translate(0,0)"/>
<path d="M0 0 C168.96 0 337.92 0 512 0 C512 168.96 512 337.92 512 512 C343.04 512 174.08 512 0 512 C0 343.04 0 174.08 0 0 Z M125.4375 49.0625 C122.70591878 52.97028616 121.87148592 56.38955078 121.88647461 61.12597656 C121.88655014 61.92650452 121.88662567 62.72703247 121.88670349 63.55181885 C121.89186478 64.40612488 121.89702606 65.26043091 121.90234375 66.140625 C121.9037587 67.02280701 121.90517365 67.90498901 121.90663147 68.81390381 C121.91221999 71.62597065 121.92477039 74.4379573 121.9375 77.25 C121.94251648 79.15885302 121.94707913 81.06770728 121.95117188 82.9765625 C121.96218566 87.65107247 121.97944242 92.32552265 122 97 C121.3805249 97.28955566 120.7610498 97.57911133 120.12280273 97.87744141 C111.97693423 102.18505536 107.73280358 112.7077591 105 121 C104.23991707 124.30570525 103.86443561 127.39115732 103.82299805 130.7800293 C103.81016281 131.70257004 103.79732758 132.62511078 103.78410339 133.5756073 C103.77671646 134.56514908 103.76932953 135.55469086 103.76171875 136.57421875 C103.753647 137.61206009 103.74557526 138.64990143 103.73725891 139.7191925 C103.72343843 141.92060693 103.71270719 144.1220426 103.70483398 146.32348633 C103.69339759 148.54295265 103.67308099 150.76239333 103.64331055 152.98168945 C103.436576 168.41517437 104.02189821 182.79768873 109.64526367 197.33959961 C111.06619759 201.17886114 111.25930584 202.24540294 110 206 C109.61263361 207.29629397 109.22743282 208.59323598 108.84375 209.890625 C108.17635049 212.06658433 107.50310009 214.2402037 106.81640625 216.41015625 C106.59855469 217.12558594 106.38070312 217.84101563 106.15625 218.578125 C105.95837891 219.21137695 105.76050781 219.84462891 105.55664062 220.49707031 C103.68375847 228.91846849 103.86736979 237.42539116 103.90234375 246.00390625 C103.9037587 247.32293442 103.90517365 248.64196259 103.90663147 250.0009613 C103.91041757 253.47789466 103.92021364 256.95478507 103.93133545 260.43170166 C103.9416344 263.99157124 103.94614712 267.55144788 103.95117188 271.11132812 C103.96184012 278.07423619 103.97886855 285.03711603 104 292 C102.76080811 291.96072388 102.76080811 291.96072388 101.49658203 291.9206543 C98.38418213 291.83462225 95.2723949 291.77236353 92.15917969 291.7253418 C90.16820647 291.68830377 88.17778347 291.62471772 86.1875 291.56054688 C77.13327819 291.44622589 69.86551611 292.4312816 63.06689453 298.81518555 C58.27825449 303.9642047 56.75714067 308.67371303 56.69360352 315.71118164 C56.68528 316.36563263 56.67695648 317.02008362 56.66838074 317.69436646 C56.6443673 319.84969114 56.63551631 322.00471211 56.62890625 324.16015625 C56.61992825 325.67126041 56.6108062 327.18236372 56.60154724 328.69346619 C56.58507456 331.86166535 56.57736119 335.02975913 56.57446289 338.19799805 C56.56910288 342.22711018 56.53151601 346.25520835 56.48571873 350.28403568 C56.45573121 353.40792803 56.44873457 356.53158357 56.44773674 359.65560722 C56.44357165 361.13896734 56.43128932 362.62233064 56.41021919 364.10554695 C56.2545563 376.01857707 57.9377643 385.83181127 66.125 394.9375 C77.69197698 405.28195096 89.22053743 404.63561272 104 404 C104.05696045 404.66966797 104.1139209 405.33933594 104.17260742 406.02929688 C104.29406128 407.36057617 104.29406128 407.36057617 104.41796875 408.71875 C104.4955542 409.59466797 104.57313965 410.47058594 104.65307617 411.37304688 C105.19529954 415.47883398 106.53186821 419.14698444 108 423 C108.25394531 423.76828125 108.50789063 424.5365625 108.76953125 425.328125 C115.33695247 443.92082433 130.01203154 456.6011009 146.96875 465.5703125 C160.5303125 471.79223815 175.46737854 472.45180415 190.14208984 472.41992188 C191.77877878 472.42728733 193.41546256 472.4358806 195.05213928 472.44558716 C199.44281134 472.46754848 203.83329439 472.47074688 208.22401381 472.46883965 C211.91380479 472.46871879 215.60355735 472.47732905 219.29333746 472.48561716 C228.01003826 472.50475884 236.72664334 472.50776853 245.44335938 472.50097656 C254.38270347 472.49433845 263.3216347 472.51721235 272.26089513 472.55429029 C279.98633554 472.58514984 287.7116442 472.59632996 295.43714488 472.59245348 C300.02909948 472.59040319 304.62073222 472.59559549 309.21262741 472.62034607 C337.38362377 472.7602415 362.86210369 471.94799649 385 452 C385.63421875 451.44699219 386.2684375 450.89398438 386.921875 450.32421875 C399.39451971 438.76218748 407.07435738 420.78750496 408 404 C409.31613281 404.04640625 410.63226563 404.0928125 411.98828125 404.140625 C423.89432371 404.43861598 433.86988179 404.54422886 443.4375 396.5625 C444.64573222 395.39610067 445.83622904 394.21076408 447 393 C448.11375 391.8553125 448.11375 391.8553125 449.25 390.6875 C455.15616673 381.61731538 455.59800886 372.74266019 455.53125 362.2109375 C455.53395102 360.69739534 455.53783848 359.18385489 455.54284668 357.6703186 C455.5487096 354.51506858 455.54028127 351.3602747 455.52148438 348.20507812 C455.49865665 344.17914361 455.51186142 340.1542738 455.53577423 336.12837791 C455.55028631 333.00890193 455.54560235 329.88967501 455.53526306 326.77019119 C455.5326127 325.28636165 455.53580541 323.8025088 455.54518127 322.31870651 C455.58986273 313.2656173 455.35314566 306.27559795 449.359375 299.01171875 C448.82828125 298.57472656 448.2971875 298.13773437 447.75 297.6875 C447.22921875 297.23761719 446.7084375 296.78773438 446.171875 296.32421875 C438.13273705 291.42265802 430.6964744 291.63025279 421.5 291.8125 C419.5509375 291.83280273 419.5509375 291.83280273 417.5625 291.85351562 C414.37456588 291.88867666 411.18750401 291.93789336 408 292 C408.00666183 291.25656845 408.01332367 290.5131369 408.02018738 289.74717712 C408.08079043 282.67341452 408.12622079 275.59974479 408.15543652 268.52579403 C408.17096253 264.8906981 408.19195512 261.25582015 408.22631836 257.62084961 C408.25938674 254.10002628 408.27695062 250.57940995 408.28463173 247.05844307 C408.29271293 245.08966863 408.31605209 243.1209752 408.33988953 241.15232849 C408.34210778 229.01172301 406.55376131 217.66134388 401.671875 206.46484375 C400.08811188 200.65464301 402.99025961 194.91651065 404.96484375 189.48828125 C407.50012503 180.94486168 408.31565126 172.54420442 408.3359375 163.6640625 C408.3425943 162.62285248 408.3492511 161.58164246 408.35610962 160.50888062 C408.36616318 158.32234443 408.37092892 156.13577802 408.37060547 153.94921875 C408.37498004 150.64010184 408.4113833 147.33231955 408.44921875 144.0234375 C408.54315572 126.63322211 406.72115053 112.05070484 394.1875 98.8125 C392.21679774 96.78732738 392.21679774 96.78732738 390 97 C390.01571045 95.78940918 390.0314209 94.57881836 390.04760742 93.33154297 C390.10204969 88.82526342 390.13640207 84.31901276 390.16479492 79.8125 C390.17984899 77.86485906 390.2002968 75.91725184 390.22631836 73.96972656 C390.26285053 71.16462872 390.27976033 68.35998046 390.29296875 65.5546875 C390.30845261 64.68883026 390.32393646 63.82297302 390.33988953 62.93087769 C390.34191217 55.60775033 388.18222476 50.32228489 383 45 C374.70862409 39.99831979 367.48618651 39.72812769 357.9375 39.625 C356.65166016 39.58761719 355.36582031 39.55023438 354.04101562 39.51171875 C345.26269158 39.43106034 338.17256637 40.46299227 331.39453125 46.40820312 C324.47596229 54.02674461 324.60481215 61.67617114 324.8125 71.4375 C324.83280273 73.25024414 324.83280273 73.25024414 324.85351562 75.09960938 C324.88869733 78.06659945 324.94249869 81.03335855 325 84 C320.05 84 315.1 84 310 84 C309.773125 82.55625 309.54625 81.1125 309.3125 79.625 C306.65648141 66.54779736 298.82364507 56.26659098 287.96484375 48.7890625 C283.18428696 45.90435234 278.2743186 43.80687475 273 42 C272.28714844 41.75378906 271.57429687 41.50757813 270.83984375 41.25390625 C256.69399461 37.3017904 241.00350705 39.72224381 228.1875 46.3125 C216.16460233 53.21744599 207.96492389 62.9120355 203 76 C202.45551022 78.34880259 202.45551022 78.34880259 202.3125 80.4375 C202.209375 81.613125 202.10625 82.78875 202 84 C197.05 84 192.1 84 187 84 C187.05800781 82.23914063 187.11601562 80.47828125 187.17578125 78.6640625 C187.2227078 76.31773502 187.26820483 73.97137864 187.3125 71.625 C187.35439453 70.46871094 187.39628906 69.31242187 187.43945312 68.12109375 C187.54893969 60.36944524 186.59680507 54.39668086 182 48 C174.12156676 40.54669246 166.96380472 39.60380848 156.35473633 39.57446289 C154.33484164 39.56263087 152.31807327 39.51346427 150.29882812 39.46289062 C140.06740597 39.40703671 132.08894559 40.81844047 125.4375 49.0625 Z " fill="#70C4E1" transform="translate(0,0)"/>
<path d="M0 0 C0.61875 0.639375 1.2375 1.27875 1.875 1.9375 C2.91208008 2.96299259 3.95460414 3.98298593 5 5 C5.69351563 5.67804688 6.38703125 6.35609375 7.1015625 7.0546875 C23.90932589 22.87697943 43.96792969 30.88270795 66.87109375 31.31640625 C68.25458763 31.3475779 68.25458763 31.3475779 69.66603088 31.37937927 C72.58978383 31.44435638 75.51362061 31.50351684 78.4375 31.5625 C80.42904486 31.60573461 82.42058148 31.64935042 84.41210938 31.69335938 C89.27465537 31.79998407 94.13728504 31.90139503 99 32 C99.05333496 32.95769287 99.10666992 33.91538574 99.16162109 34.90209961 C99.23977051 36.16030518 99.31791992 37.41851074 99.3984375 38.71484375 C99.47239746 39.96128662 99.54635742 41.20772949 99.62255859 42.49194336 C100.20513709 47.90660731 101.65840158 51.83266007 105.6796875 55.5546875 C111.27541997 59.80552289 116.07659451 60.16351089 123.01953125 60.203125 C123.79632736 60.20882507 124.57312347 60.21452515 125.37345886 60.22039795 C127.01499071 60.22982748 128.65654131 60.23637379 130.2980957 60.24023438 C132.79347238 60.2499261 135.28802001 60.28096219 137.78320312 60.3125 C139.38280764 60.31903231 140.98241801 60.32428189 142.58203125 60.328125 C143.32081009 60.3404718 144.05958893 60.3528186 144.820755 60.36553955 C151.18377244 60.33854133 155.77927899 58.86742449 160.75 54.6875 C165.02311155 49.58350565 166.37550009 45.23939799 166.6875 38.625 C166.78611328 36.75714844 166.78611328 36.75714844 166.88671875 34.8515625 C166.92410156 33.91054687 166.96148437 32.96953125 167 32 C168.21357178 31.9906543 169.42714355 31.98130859 170.67749023 31.97167969 C175.26458865 31.9312165 179.85105518 31.86531485 184.43774414 31.79248047 C186.40706139 31.76459236 188.37648388 31.74322147 190.34594727 31.72900391 C205.8818934 31.61025782 221.50966101 30.87694837 235.4375 23.1875 C236.09379395 22.84130615 236.75008789 22.4951123 237.42626953 22.13842773 C248.24257819 16.31497827 257.39690037 8.74141313 266 0 C270.46096549 9.21932869 269.14885586 20.54838488 269.14526367 30.54443359 C269.14825982 32.21262181 269.15166339 33.88080934 269.15544128 35.54899597 C269.16423805 40.05939207 269.16661754 44.56976917 269.16725707 49.08017302 C269.16796991 51.90301553 269.17010862 54.72585328 269.17275429 57.54869461 C269.18199264 67.41039586 269.18609097 77.27208363 269.18530273 87.13378906 C269.184702 96.30474366 269.19525688 105.47563943 269.2110464 114.64657915 C269.22414862 122.53986364 269.22948552 130.43312896 269.22884732 138.32642424 C269.22859317 143.03215522 269.23139861 147.73783385 269.24202538 152.44355392 C269.25175188 156.87100505 269.25175451 161.29835424 269.24450874 165.7258091 C269.24346862 167.34343046 269.24579149 168.96105832 269.2518692 170.57866859 C269.31675189 189.05526972 266.3223708 204.23042244 253.2578125 217.9375 C240.10117417 231.09413833 224.57740211 236.22634102 206.25842285 236.29327393 C204.7092284 236.29257508 203.16003404 236.29165211 201.61083984 236.29052734 C199.95899148 236.29651998 198.30714591 236.3033272 196.65530396 236.31088257 C192.18801494 236.32847826 187.72080266 236.33323532 183.25348234 236.33451414 C180.45539405 236.33594033 177.65732498 236.34021882 174.85924149 236.34550858 C165.0772097 236.36398991 155.29523226 236.37218186 145.51318359 236.37060547 C136.42857535 236.36940565 127.34420529 236.39048147 118.25965726 236.4220928 C110.43339253 236.44834457 102.60720514 236.458969 94.78089678 236.45769465 C90.11856932 236.45718749 85.45645356 236.46273324 80.79417038 236.48405075 C76.40272202 236.50358302 72.01168402 236.50345654 67.62022018 236.48901749 C66.0203999 236.48694649 64.42055291 236.49152658 62.82077789 236.5037384 C44.21300014 236.63643049 28.15416248 232.51423653 14.28125 219.34375 C3.81467121 208.59041563 -3.24483618 195.76397552 -3.25396729 180.51972961 C-3.25708727 179.81152846 -3.26020725 179.10332731 -3.26342177 178.37366551 C-3.27133538 176.02416962 -3.26510421 173.67493681 -3.25878906 171.32543945 C-3.261502 169.63108673 -3.26506463 167.93673519 -3.26940918 166.24238586 C-3.27850288 161.65532658 -3.27500046 157.06835758 -3.26865101 152.48129678 C-3.26357123 147.66674327 -3.26828833 142.85219726 -3.27142334 138.03764343 C-3.27505897 129.94834005 -3.27027627 121.85907322 -3.26074219 113.76977539 C-3.24987683 104.44380195 -3.25337088 95.11791609 -3.264395 85.7919448 C-3.27350136 77.76446295 -3.27473628 69.73700731 -3.26951766 61.70952195 C-3.26641395 56.92435314 -3.26594396 52.13922533 -3.27259064 47.35405922 C-3.27841168 42.84863296 -3.27428105 38.34331831 -3.26280212 33.83790398 C-3.26018 32.19371347 -3.26087819 30.54951342 -3.26532745 28.90532684 C-3.28841767 19.49758406 -3.08171254 10.22993371 -1 1 C-0.67 0.67 -0.34 0.34 0 0 Z " fill="#71C4E1" transform="translate(123,220)"/>
<path d="M0 0 C2.16286416 -0.00486266 4.32572382 -0.01230792 6.48857117 -0.02212524 C12.33362953 -0.04085538 18.17801294 -0.02216851 24.02301836 0.00453901 C30.15356002 0.02725763 36.28407064 0.01894624 42.41464233 0.01504517 C52.70541341 0.0132823 62.99592021 0.03537881 73.28662109 0.07226562 C85.1701202 0.11461891 97.0532327 0.12161408 108.93679202 0.10914171 C120.38976095 0.09773852 131.84259429 0.10906296 143.29554367 0.1314888 C148.16054171 0.14075746 153.02545652 0.14253865 157.89046097 0.13831711 C163.62146827 0.13453986 169.35208405 0.15084649 175.08300209 0.1824379 C177.1815701 0.19089605 179.28017795 0.19264326 181.37875557 0.1870575 C195.93009072 0.15421189 206.28969685 0.76683548 217.30615234 11.22900391 C222.14218419 16.75099771 225.61819559 23.72133051 225.65454102 31.13330078 C225.66411079 32.46113586 225.66411079 32.46113586 225.6738739 33.8157959 C225.67554314 35.25009949 225.67554314 35.25009949 225.67724609 36.71337891 C225.68057449 37.70406372 225.68390289 38.69474854 225.68733215 39.7154541 C225.69239916 41.81697119 225.69474055 43.91849634 225.69458008 46.02001953 C225.69674993 49.20440366 225.71486183 52.38843186 225.73388672 55.57275391 C225.73682417 57.61962773 225.73880661 59.66650319 225.73974609 61.71337891 C225.74693161 62.65338745 225.75411713 63.593396 225.76152039 64.56188965 C225.69539363 84.13021437 218.37927047 101.10236426 205.00927734 115.33056641 C190.32949957 129.50572682 172.69100546 135.97476492 152.41552734 135.84228516 C151.58339722 135.84087021 150.75126709 135.83945526 149.8939209 135.83799744 C147.26566804 135.83245058 144.63750396 135.81990836 142.00927734 135.80712891 C140.21500775 135.80210702 138.42073681 135.79754533 136.62646484 135.79345703 C132.25403539 135.78249863 127.88167136 135.76527138 123.50927734 135.74462891 C123.45594238 134.78693604 123.40260742 133.82924316 123.34765625 132.8425293 C123.23043213 130.95522095 123.23043213 130.95522095 123.11083984 129.02978516 C123.03687988 127.78334229 122.96291992 126.53689941 122.88671875 125.25268555 C122.30414025 119.8380216 120.85087577 115.91196884 116.82958984 112.18994141 C111.23385738 107.93910601 106.43268283 107.58111802 99.48974609 107.54150391 C98.71294998 107.53580383 97.93615387 107.53010376 97.13581848 107.52423096 C95.49428663 107.51480142 93.85273603 107.50825512 92.21118164 107.50439453 C89.71580496 107.49470281 87.22125733 107.46366672 84.72607422 107.43212891 C83.1264697 107.4255966 81.52685933 107.42034702 79.92724609 107.41650391 C79.18846725 107.4041571 78.44968842 107.3918103 77.68852234 107.37908936 C71.32550491 107.40608757 66.72999835 108.87720442 61.75927734 113.05712891 C57.4861658 118.16112325 56.13377725 122.50523092 55.82177734 129.11962891 C55.75603516 130.36486328 55.69029297 131.61009766 55.62255859 132.89306641 C55.58517578 133.83408203 55.54779297 134.77509766 55.50927734 135.74462891 C50.06903988 135.81970649 44.62911479 135.87366153 39.18847656 135.90942383 C37.34402197 135.92435803 35.49960191 135.94471286 33.65527344 135.97094727 C19.52628854 136.16665021 6.0339979 135.91533325 -6.74072266 129.05712891 C-7.40982666 128.70827637 -8.07893066 128.35942383 -8.76831055 128 C-26.52426243 118.4567383 -38.67647159 102.71364344 -44.79931641 83.65869141 C-46.48176651 76.56768703 -46.67161512 69.50502266 -46.72900391 62.25244141 C-46.73707565 61.26645966 -46.7451474 60.28047791 -46.75346375 59.26461792 C-46.76722591 57.18879922 -46.77798283 55.11295864 -46.78588867 53.03710938 C-46.79742544 50.92896828 -46.81790384 48.82085677 -46.84741211 46.71289062 C-46.8903021 43.64254213 -46.90628366 40.57305307 -46.91650391 37.50244141 C-46.93401199 36.57295685 -46.95152008 35.64347229 -46.96955872 34.68582153 C-46.94085038 25.90937261 -44.42856675 18.10722801 -38.49072266 11.49462891 C-37.50072266 10.34220703 -37.50072266 10.34220703 -36.49072266 9.16650391 C-24.88640892 -0.20156187 -14.31103521 -0.11299915 0 0 Z " fill="#70C4E1" transform="translate(166.49072265625,100.25537109375)"/>
<path d="M0 0 C1.13273849 -0.00990463 2.26547699 -0.01980927 3.43254089 -0.03001404 C5.29035439 -0.02326157 5.29035439 -0.02326157 7.18569946 -0.01637268 C9.14721703 -0.02666756 9.14721703 -0.02666756 11.14836121 -0.03717041 C14.73319467 -0.05511725 18.31778355 -0.0539304 21.90264845 -0.04822803 C24.89712207 -0.04513767 27.89154861 -0.05122706 30.88601553 -0.05726677 C37.95225859 -0.07131603 45.01838077 -0.06974805 52.08462524 -0.05836487 C59.36923777 -0.04688905 66.6534819 -0.06094912 73.93804586 -0.08776134 C80.19636893 -0.10993202 86.45457649 -0.11655249 92.71293604 -0.11068493 C96.44893565 -0.10731667 100.18469923 -0.10972114 103.92066574 -0.12693596 C108.08867386 -0.14530293 112.25596756 -0.13120404 116.42398071 -0.11402893 C117.65847458 -0.1236969 118.89296844 -0.13336487 120.16487122 -0.14332581 C130.80867136 -0.05137693 130.80867136 -0.05137693 135.43423462 4.38768005 C137.36125993 7.19170753 137.69089983 9.43407627 137.72476196 12.79808044 C137.73752167 13.66320755 137.75028137 14.52833466 137.76342773 15.41967773 C137.76565338 16.34884506 137.76787903 17.27801239 137.77017212 18.2353363 C137.78015732 19.68594704 137.78015732 19.68594704 137.79034424 21.16586304 C137.80046644 23.21431073 137.80516139 25.26279136 137.80484009 27.31126404 C137.80918506 30.41477988 137.84543107 33.51684028 137.88345337 36.62010193 C137.96674313 50.86596039 137.24731083 61.52382007 126.93814087 72.22361755 C123.13344045 75.51192337 119.11164342 77.60297717 114.43423462 79.38768005 C113.57819138 79.73102386 112.72214813 80.07436768 111.84016418 80.42811584 C107.62800863 81.61482086 103.83482578 81.68301006 99.48233032 81.6782074 C98.16152718 81.68828323 98.16152718 81.68828323 96.81404114 81.69856262 C93.9126414 81.71750724 91.01147356 81.72146543 88.11001587 81.72361755 C86.08227953 81.73004931 84.05454411 81.73677796 82.02680969 81.74378967 C77.77758637 81.75575461 73.52844429 81.75947144 69.27920532 81.75828552 C63.85683272 81.7580827 58.43498637 81.78535068 53.01273823 81.81982994 C48.8234675 81.84216477 44.63432194 81.846121 40.44499779 81.84506607 C38.44727966 81.84741343 36.44955762 81.85618777 34.45189857 81.8717308 C20.49617195 81.97012485 8.21464599 81.60105899 -2.56185913 71.52049255 C-13.22276881 60.52704074 -13.18577063 48.63090996 -13.03231812 34.08860779 C-13.00316434 31.06470027 -13.01177756 28.04252961 -13.02474976 25.01853943 C-13.01851665 23.08298409 -13.01012906 21.14743422 -12.99935913 19.2118988 C-13.00229477 18.31492783 -13.00523041 17.41795685 -13.008255 16.49380493 C-12.93184858 11.40399656 -12.4827087 7.74470138 -9.56576538 3.38768005 C-6.40589656 0.449039 -4.26876972 0.01054072 0 0 Z " fill="#70C4E1" transform="translate(193.56576538085938,322.61231994628906)"/>
<path d="M0 0 C1.18737259 -0.0071553 2.37474518 -0.01431061 3.59809875 -0.02168274 C4.90254944 -0.02437164 6.20700012 -0.02706055 7.55097961 -0.02983093 C8.93744069 -0.03609691 10.3239001 -0.04274383 11.71035767 -0.04974365 C16.2656996 -0.07077367 20.82104182 -0.08114628 25.37641907 -0.09111023 C26.9460025 -0.09515843 28.51558576 -0.09927538 30.08516884 -0.10346031 C37.46096335 -0.12251109 44.83674788 -0.13674133 52.21256226 -0.14507228 C60.71877593 -0.15483922 69.224729 -0.18114482 77.73085088 -0.22157317 C84.31017737 -0.25176737 90.88942931 -0.26654435 97.46882373 -0.26985329 C101.39607833 -0.27220038 105.3230545 -0.28111573 109.2502346 -0.30631447 C112.94802969 -0.32965779 116.64536426 -0.33380363 120.34321404 -0.32355309 C122.33840259 -0.32282453 124.33356808 -0.3418725 126.32865906 -0.36161804 C135.26288961 -0.30998332 142.0674982 1.17648689 148.86347961 7.47920227 C157.73134061 17.76008235 157.14504872 29.02011971 156.91963196 41.90107727 C156.86482029 45.14008126 156.85810471 48.3765008 156.85884094 51.61592102 C156.76499084 69.94967872 154.83450374 85.065112 141.67720032 98.89326477 C131.05344083 108.97535231 117.62053338 113.27861435 103.22016907 113.32417297 C102.31373154 113.33074417 101.40729401 113.33731537 100.47338867 113.34408569 C97.47882494 113.36376481 94.48431134 113.37547199 91.48970032 113.38545227 C90.46241821 113.3895278 89.43513611 113.39360332 88.37672424 113.39780235 C82.93473005 113.41864447 77.49276091 113.43295181 72.05073547 113.44233704 C66.45705394 113.45337154 60.86377347 113.48774278 55.27023315 113.52750874 C50.94621594 113.55378372 46.62229252 113.56203871 42.29820251 113.56561852 C40.2379334 113.57045975 38.17766777 113.58200253 36.11747742 113.60065651 C17.10894208 113.76201267 2.02758791 111.11693515 -12.33451843 97.67060852 C-22.99793765 86.28454436 -25.82044257 73.74950827 -25.93608093 58.63154602 C-25.94415268 57.62053833 -25.95222443 56.60953064 -25.96054077 55.56788635 C-25.9743349 53.43303621 -25.98507781 51.29816444 -25.9929657 49.1632843 C-26.00448403 46.99297058 -26.02493339 44.82268515 -26.05448914 42.65254211 C-26.09738256 39.49951632 -26.11336414 36.34732818 -26.12358093 33.19404602 C-26.14108902 32.23641357 -26.15859711 31.27878113 -26.17663574 30.29212952 C-26.15155363 22.3972662 -24.27104266 15.21983012 -19.44779968 8.83467102 C-13.70529449 3.22267731 -8.10230606 0.03348648 0 0 Z M-7.69779968 20.14717102 C-10.42562237 24.67154083 -10.0210834 29.74471548 -10.03373718 34.87373352 C-10.04039398 35.81719635 -10.04705078 36.76065918 -10.0539093 37.73271179 C-10.06401917 39.72810422 -10.06872684 41.72353035 -10.06840515 43.71894836 C-10.07275507 46.74117863 -10.10902795 49.76191988 -10.14701843 52.78388977 C-10.23064066 66.75075434 -9.43662228 77.40000172 0.65766907 87.91279602 C8.92126808 94.89474378 17.45266566 97.28563491 27.99531555 97.34004211 C28.87234634 97.3482196 29.74937714 97.35639709 30.65298462 97.36482239 C33.55558095 97.38963036 36.4581283 97.40618615 39.36079407 97.42060852 C40.35589556 97.4259322 41.35099705 97.43125587 42.37625313 97.43674088 C47.64965671 97.46346031 52.9230368 97.48283381 58.19648743 97.49726868 C62.54273188 97.5105716 66.88850281 97.53835874 71.23457336 97.57929993 C76.49771872 97.62887246 81.76043681 97.6534205 87.02380562 97.66049576 C89.01989978 97.66716995 91.01598585 97.68229077 93.01194572 97.70638657 C107.00068893 97.8655448 119.91242351 97.48183768 130.58735657 87.10029602 C138.37420533 78.23144778 140.61038957 70.41766848 140.63813782 58.83076477 C140.64479462 57.85607742 140.65145142 56.88139008 140.65830994 55.87716675 C140.66839404 53.82566708 140.67312828 51.7741349 140.67280579 49.72261047 C140.67719174 46.59079629 140.71359169 43.46037818 140.75141907 40.32881165 C140.75728562 38.32946748 140.76125609 36.33011666 140.76313782 34.33076477 C140.78469437 32.93367531 140.78469437 32.93367531 140.8066864 31.50836182 C140.76748253 25.91513685 140.18294128 22.49498291 136.30220032 18.14717102 C133.07745677 16.09617462 130.51435927 15.89261899 126.72970581 15.87974548 C125.02843033 15.86695053 125.02843033 15.86695053 123.29278564 15.85389709 C121.43261559 15.85525665 121.43261559 15.85525665 119.53486633 15.85664368 C118.22558167 15.84992645 116.916297 15.84320923 115.56733704 15.83628845 C111.97849095 15.8186299 108.38974025 15.81393319 104.80085492 15.81265688 C102.55816421 15.81123483 100.31549772 15.80696425 98.07281303 15.80166245 C90.24748572 15.78316381 82.42222651 15.77499177 74.59687805 15.77656555 C67.30430857 15.77776745 60.01203481 15.75665542 52.71954018 15.72507823 C46.45614943 15.69892428 40.19285534 15.68819785 33.9294104 15.68947637 C30.18951419 15.6899862 26.44988092 15.6842917 22.71003914 15.66312027 C18.53946335 15.64015441 14.36955031 15.64925328 10.19892883 15.66133118 C8.96083969 15.65009216 7.72275055 15.63885315 6.44714355 15.62727356 C5.31014008 15.63566254 4.1731366 15.64405151 3.00167847 15.6526947 C2.01594628 15.65160517 1.0302141 15.65051563 0.01461124 15.64939308 C-3.46937214 16.28876894 -5.149946 17.738508 -7.69779968 20.14717102 Z " fill="#FCFDFE" transform="translate(190.6977996826172,306.8528289794922)"/>
<path d="M0 0 C1.05467295 -0.01169993 1.05467295 -0.01169993 2.13065243 -0.02363622 C4.48094906 -0.04354154 6.82962372 -0.02779932 9.17993164 -0.01205444 C10.86712589 -0.01883129 12.55431275 -0.0277348 14.2414856 -0.03860474 C18.82007613 -0.06139693 23.39810328 -0.05256218 27.97670364 -0.03670931 C32.7683387 -0.02404988 37.55992555 -0.03579054 42.3515625 -0.04364014 C50.39828146 -0.05273657 58.44477096 -0.04074894 66.49145508 -0.01693726 C75.79439272 0.01027403 85.09678247 0.00145986 94.39970684 -0.02606928 C102.38712853 -0.04875952 110.37438529 -0.05196086 118.3618288 -0.03887594 C123.13233229 -0.03108095 127.90257825 -0.03004113 132.67306519 -0.04655838 C137.15812703 -0.06100267 141.64248256 -0.05098249 146.12746811 -0.0220871 C147.77339378 -0.01547602 149.4193789 -0.01737441 151.06528091 -0.02840042 C153.31271468 -0.042068 155.5578862 -0.02493013 157.80517578 0 C159.06245987 0.00188513 160.31974396 0.00377026 161.61512756 0.00571251 C165.80171639 0.80700752 167.28991505 2.33357429 169.90258789 5.63491821 C170.7050458 9.48671618 170.31972332 10.99298417 168.17927551 14.28694153 C163.82038861 18.38281227 157.42895137 17.28252992 151.85058594 17.20254517 C150.50996453 17.201134 149.16933926 17.20192803 147.82872009 17.20475769 C144.1965606 17.20619061 140.56522895 17.17682231 136.93326163 17.1418879 C133.13497871 17.11060302 129.33667619 17.10769201 125.5382843 17.10176086 C118.34882668 17.08622858 111.15974982 17.0452088 103.97045976 16.99501342 C95.7843382 16.93910051 87.59819832 16.91162861 79.4119333 16.88653624 C62.57526204 16.83429211 45.73897358 16.74636222 28.90258789 16.63491821 C28.9605957 17.8040979 29.01860352 18.97327759 29.07836914 20.17788696 C29.12528238 21.72602401 29.17078087 23.27420438 29.21508789 24.82241821 C29.25698242 25.59134399 29.29887695 26.36026978 29.34204102 27.15249634 C29.43423737 31.44884647 29.28381967 33.12985095 26.60571289 36.67788696 C23.90258789 38.63491821 23.90258789 38.63491821 20.34008789 38.75991821 C16.17813057 37.39782309 15.16765243 36.34451415 12.90258789 32.63491821 C12.43890521 29.84066701 12.5214332 27.14476621 12.65258789 24.32241821 C12.67063477 23.58185181 12.68868164 22.8412854 12.70727539 22.07827759 C12.75411453 20.26326112 12.82585001 18.44891656 12.90258789 16.63491821 C12.3229126 16.66110229 11.7432373 16.68728638 11.14599609 16.71426392 C8.50263914 16.81862434 5.8597159 16.88336148 3.21508789 16.94741821 C1.84707031 17.01026001 1.84707031 17.01026001 0.45141602 17.07437134 C-4.21056249 17.15913458 -6.37299786 17.17891231 -10.20288086 14.30288696 C-12.09741211 11.63491821 -12.09741211 11.63491821 -12.72241211 8.63491821 C-11.26908961 1.65897021 -6.54556929 0.0098142 0 0 Z " fill="#FEFEFE" transform="translate(177.097412109375,129.36508178710938)"/>
<path d="M0 0 C26 0 26 0 31 4 C31.63491821 6.85687256 31.63491821 6.85687256 31.64697266 10.20214844 C31.66273346 11.45735291 31.67849426 12.71255737 31.69473267 14.00579834 C31.68577893 15.37366613 31.67552296 16.74152592 31.6640625 18.109375 C31.66743342 19.51939308 31.67228834 20.92940833 31.67855835 22.3394165 C31.68592659 25.29524387 31.67523391 28.25031533 31.65185547 31.20605469 C31.62347029 34.97682324 31.63970347 38.7458043 31.66971779 42.5165062 C31.68788295 45.43016749 31.6819894 48.34341312 31.66907883 51.25708771 C31.66576465 52.64602118 31.66976134 54.03499352 31.68147659 55.42388153 C31.72768449 62.4461256 31.74083156 68.40763077 27.7539978 74.37408447 C18.65012846 82.81316148 13.60086017 80 0 80 C0 53.6 0 27.2 0 0 Z " fill="#72C4E1" transform="translate(408,308)"/>
<path d="M0 0 C0 26.4 0 52.8 0 80 C-19 80 -19 80 -27 75 C-32.36788277 68.67605451 -31.60225931 61.41271335 -31.56640625 53.45703125 C-31.57164734 52.04171847 -31.57792559 50.62640919 -31.58518982 49.21110535 C-31.59555927 46.25653546 -31.59107941 43.30244832 -31.57641602 40.34790039 C-31.55917399 36.56455102 -31.58280524 32.78271277 -31.61790562 28.99953175 C-31.6398692 26.08178173 -31.63844193 23.16439459 -31.6301403 20.24658775 C-31.62932132 18.85154238 -31.63617492 17.45647023 -31.65091133 16.06150246 C-31.66834603 14.113741 -31.65050168 12.16576047 -31.63110352 10.21801758 C-31.63014175 9.11106033 -31.62917999 8.00410309 -31.62818909 6.86360168 C-28.74785199 -6.26642291 -7.26645411 0 0 0 Z " fill="#72C4E1" transform="translate(104,308)"/>
<path d="M0 0 C2.66796875 1.6796875 2.66796875 1.6796875 4.9375 3.375 C5.61425781 3.83132812 6.29101562 4.28765625 6.98828125 4.7578125 C13.86659921 9.91286878 17.55044768 17.05268607 18.9375 25.375 C-6.1425 25.375 -31.2225 25.375 -57.0625 25.375 C-55.57140032 16.4284019 -51.45838649 9.54244267 -44.26953125 3.9140625 C-43.54121094 3.40617187 -42.81289062 2.89828125 -42.0625 2.375 C-41.01642578 1.61316406 -41.01642578 1.61316406 -39.94921875 0.8359375 C-29.25303609 -5.43122026 -11.10705364 -5.32857384 0 0 Z " fill="#74C5E1" transform="translate(275.0625,59.625)"/>
<path d="M0 0 C0.7027002 -0.00191345 1.40540039 -0.0038269 2.12939453 -0.00579834 C3.61556354 -0.00715975 5.10174445 -0.00346632 6.58789062 0.00488281 C8.86615646 0.01558346 11.14363377 0.00498661 13.421875 -0.0078125 C14.86458508 -0.0064909 16.30729466 -0.00392849 17.75 0 C19.06742187 0.00225586 20.38484375 0.00451172 21.7421875 0.00683594 C24.875 0.265625 24.875 0.265625 26.875 2.265625 C27.07490227 5.11102642 27.15476976 7.85700284 27.140625 10.703125 C27.14349518 11.9569397 27.14349518 11.9569397 27.14642334 13.23608398 C27.14778536 15.00472311 27.14408776 16.77337223 27.13574219 18.54199219 C27.12504275 21.25478494 27.13563676 23.96691544 27.1484375 26.6796875 C27.14711591 28.3958348 27.14455352 30.11198169 27.140625 31.828125 C27.14467346 32.64273193 27.14872192 33.45733887 27.15289307 34.29663086 C27.10491928 40.03570572 27.10491928 40.03570572 24.875 42.265625 C21.7421875 42.52441406 21.7421875 42.52441406 17.75 42.53125 C17.0472998 42.53316345 16.34459961 42.5350769 15.62060547 42.53704834 C14.13443646 42.53840975 12.64825555 42.53471632 11.16210938 42.52636719 C8.88384354 42.51566654 6.60636623 42.52626339 4.328125 42.5390625 C2.88541492 42.5377409 1.44270534 42.53517849 0 42.53125 C-1.31742188 42.52899414 -2.63484375 42.52673828 -3.9921875 42.52441406 C-7.125 42.265625 -7.125 42.265625 -9.125 40.265625 C-9.32490227 37.42022358 -9.40476976 34.67424716 -9.390625 31.828125 C-9.39253845 30.99224854 -9.3944519 30.15637207 -9.39642334 29.29516602 C-9.39778536 27.52652689 -9.39408776 25.75787777 -9.38574219 23.98925781 C-9.37504275 21.27646506 -9.38563676 18.56433456 -9.3984375 15.8515625 C-9.39711591 14.1354152 -9.39455352 12.41926831 -9.390625 10.703125 C-9.39467346 9.88851807 -9.39872192 9.07391113 -9.40289307 8.23461914 C-9.33762349 0.42645895 -7.44936242 0.01275576 0 0 Z " fill="#70C4E1" transform="translate(247.125,222.734375)"/>
<path d="M0 0 C1.62711914 -0.04253906 1.62711914 -0.04253906 3.28710938 -0.0859375 C7.94926039 -0.09739946 11.16172625 0.00936116 15.296875 2.26171875 C18.05776371 7.3253841 17.59003081 12.1522274 17.375 17.8125 C17.35244141 18.93462891 17.32988281 20.05675781 17.30664062 21.21289062 C17.24783776 23.97662536 17.16570401 26.73762554 17.0625 29.5 C16.24048096 29.52505615 15.41846191 29.5501123 14.5715332 29.57592773 C10.83920626 29.69212655 7.10711683 29.81474505 3.375 29.9375 C1.43463867 29.99647461 1.43463867 29.99647461 -0.54492188 30.05664062 C-1.79208984 30.09853516 -3.03925781 30.14042969 -4.32421875 30.18359375 C-6.04451294 30.23858032 -6.04451294 30.23858032 -7.79956055 30.29467773 C-10.60743278 30.47840298 -13.19975814 30.8699382 -15.9375 31.5 C-16.03645097 27.56745992 -16.1090042 23.63540254 -16.15722656 19.7019043 C-16.18721281 17.70660986 -16.23803786 15.71166418 -16.2890625 13.71679688 C-16.30839844 11.83637695 -16.30839844 11.83637695 -16.328125 9.91796875 C-16.34907227 8.76063232 -16.37001953 7.6032959 -16.39160156 6.41088867 C-15.9375 3.5 -15.9375 3.5 -14.25463867 1.62817383 C-9.76843512 -0.55607932 -4.89716288 -0.01159778 0 0 Z " fill="#75C6E2" transform="translate(153.9375,55.5)"/>
<path d="M0 0 C1.08861328 -0.00257812 2.17722656 -0.00515625 3.29882812 -0.0078125 C11.09149946 0.0880973 11.09149946 0.0880973 14.25463867 1.62817383 C16.70317742 4.35165368 16.39357665 6.30176484 16.328125 9.91796875 C16.31523437 11.17158203 16.30234375 12.42519531 16.2890625 13.71679688 C16.25554687 15.02712891 16.22203125 16.33746094 16.1875 17.6875 C16.16743307 19.0227601 16.14918262 20.35804883 16.1328125 21.69335938 C16.08559803 24.96296146 16.01975184 28.23112192 15.9375 31.5 C14.65335205 31.26228882 14.65335205 31.26228882 13.34326172 31.01977539 C10.01300023 30.51152258 6.81051055 30.29576702 3.4453125 30.18359375 C2.24648438 30.14169922 1.04765625 30.09980469 -0.1875 30.05664062 C-1.425 30.01732422 -2.6625 29.97800781 -3.9375 29.9375 C-5.19820313 29.89431641 -6.45890625 29.85113281 -7.7578125 29.80664062 C-10.85927423 29.70090898 -13.96081145 29.59881429 -17.0625 29.5 C-17.20803599 25.60456123 -17.29665059 21.70982349 -17.375 17.8125 C-17.41689453 16.70970703 -17.45878906 15.60691406 -17.50195312 14.47070312 C-17.57347025 9.73626918 -17.58907947 6.46578403 -15.296875 2.26171875 C-10.29301738 -0.4638124 -5.60165015 -0.14644837 0 0 Z " fill="#75C6E2" transform="translate(358.0625,55.5)"/>
</svg>
