<?xml version="1.0" encoding="UTF-8"?>
<svg version="1.1" xmlns="http://www.w3.org/2000/svg" width="512" height="512">
<path d="M0 0 C0.76543625 -0.0099852 1.5308725 -0.0199704 2.31950378 -0.03025818 C3.93047732 -0.04536211 5.54154362 -0.05248638 7.15258789 -0.05200195 C9.58966338 -0.05855128 12.02263023 -0.11306787 14.45898438 -0.16992188 C23.46230605 -0.26815418 30.80297948 0.06454262 37.79296875 6.50390625 C42.29201221 12.19731806 43.9224574 16.85100631 43.890625 24.140625 C43.88740234 25.43935547 43.88417969 26.73808594 43.88085938 28.07617188 C43.87250406 29.44791733 43.86403912 30.81966212 43.85546875 32.19140625 C43.8504521 33.5748682 43.84588948 34.95833188 43.84179688 36.34179688 C43.82999413 39.72918521 43.81205842 43.11655115 43.79296875 46.50390625 C48.74296875 46.50390625 53.69296875 46.50390625 58.79296875 46.50390625 C58.87546875 45.36953125 58.95796875 44.23515625 59.04296875 43.06640625 C60.50469421 31.67295708 67.96279823 19.67630529 76.79296875 12.50390625 C93.51749797 0.35932503 110.83472931 -1.76578492 131.16894531 0.80419922 C145.02906812 3.53654387 157.87124437 13.27924906 165.66796875 24.81640625 C169.6252391 31.45863308 172.79296875 38.69893386 172.79296875 46.50390625 C177.74296875 46.50390625 182.69296875 46.50390625 187.79296875 46.50390625 C187.7465625 44.50328125 187.70015625 42.50265625 187.65234375 40.44140625 C187.62450393 38.47869872 187.59681609 36.51598606 187.57324219 34.55322266 C187.5435083 32.54042998 187.49265146 30.52798491 187.44140625 28.515625 C187.34949761 19.37071487 188.11352923 13.87945595 194.10546875 6.75390625 C200.06643999 1.76332568 204.42651334 -0.11256635 212.0703125 -0.02734375 C212.8404921 -0.03117065 213.61067169 -0.03499756 214.40419006 -0.03894043 C216.02362383 -0.04164702 217.64310225 -0.034374 219.26245117 -0.01757812 C221.72089661 0.00382292 224.17641072 -0.01740442 226.63476562 -0.04296875 C228.21745428 -0.04032468 229.80014113 -0.03519804 231.3828125 -0.02734375 C232.10701889 -0.03544067 232.83122528 -0.0435376 233.57737732 -0.05187988 C239.86264262 0.06173029 244.89074722 2.16046215 249.78125 6.109375 C255.77162003 13.26601176 257.26171374 20.75706368 257.0859375 29.9140625 C257.08169266 30.76697372 257.07744781 31.61988495 257.07307434 32.49864197 C257.05645505 35.18823575 257.0188365 37.87704394 256.98046875 40.56640625 C256.96540018 42.40428595 256.95171561 44.24217756 256.93945312 46.08007812 C256.9066068 50.55498421 256.85494373 55.02931265 256.79296875 59.50390625 C257.41244385 59.7889502 258.03191895 60.07399414 258.67016602 60.36767578 C266.73793617 64.68595092 270.95916274 76.31870691 273.79296875 84.50390625 C274.72349646 87.63605769 274.93492716 90.4730276 274.9699707 93.73706055 C274.98280594 94.78302902 274.99564117 95.8289975 275.00886536 96.90666199 C275.01994576 98.60028618 275.01994576 98.60028618 275.03125 100.328125 C275.03932175 101.50292923 275.04739349 102.67773346 275.05570984 103.88813782 C275.06954744 106.38219735 275.08027104 108.8762758 275.08813477 111.37036133 C275.09958543 113.89450721 275.11992547 116.41863022 275.1496582 118.94262695 C275.51518773 149.98813192 275.51518773 149.98813192 269.14770508 164.27197266 C267.54434275 168.09704213 267.72309413 169.54636079 268.79296875 173.50390625 C269.06367187 174.51493408 269.06367187 174.51493408 269.33984375 175.54638672 C270.1822991 178.63606471 271.07919943 181.70909364 271.9765625 184.78320312 C272.19441406 185.54568359 272.41226562 186.30816406 272.63671875 187.09375 C272.93352539 188.11263306 272.93352539 188.11263306 273.23632812 189.15209961 C274.49675556 194.47740551 274.91730565 199.71376966 274.90649414 205.17358398 C274.90641861 206.45438339 274.90634308 207.7351828 274.90626526 209.05479431 C274.9011602 210.43236328 274.89594423 211.80993184 274.890625 213.1875 C274.88875735 214.61239065 274.88733509 216.03728194 274.88633728 217.46217346 C274.88253941 221.19230965 274.87273277 224.92240621 274.8616333 228.65252686 C274.85136016 232.4669135 274.84682707 236.28130661 274.84179688 240.09570312 C274.83110777 247.56512213 274.81406455 255.03450861 274.79296875 262.50390625 C275.59404053 262.4881958 276.3951123 262.47248535 277.22045898 262.45629883 C280.89038889 262.39349477 284.56020524 262.35477137 288.23046875 262.31640625 C290.12055664 262.27870117 290.12055664 262.27870117 292.04882812 262.24023438 C300.86581908 262.17117178 309.25607037 262.51668094 316.10546875 268.69140625 C316.72035156 269.22121094 317.33523438 269.75101562 317.96875 270.296875 C324.74261372 278.49223475 324.38455439 286.77248131 324.32421875 296.90234375 C324.32691824 298.50363398 324.33080444 300.10492261 324.33581543 301.70620728 C324.34169248 305.05332124 324.33320829 308.40000645 324.31445312 311.74707031 C324.29170126 316.01274079 324.30477348 320.27740225 324.32874298 324.54303551 C324.34328162 327.84788444 324.33855772 331.15249904 324.32823181 334.4573555 C324.32558479 336.02884672 324.32876208 337.60036 324.33815002 339.17182541 C324.39607633 351.59466439 322.79077312 362.20617506 313.79296875 371.50390625 C304.91787323 378.88865554 296.08353623 380.99952708 284.73046875 380.69140625 C283.76947266 380.67787109 282.80847656 380.66433594 281.81835938 380.65039062 C279.47595123 380.61542931 277.13477719 380.56636729 274.79296875 380.50390625 C274.74615967 381.13949463 274.69935059 381.77508301 274.65112305 382.42993164 C273.21178829 399.38932591 265.88367728 413.79443552 254.79296875 426.50390625 C254.27347656 427.11878906 253.75398438 427.73367188 253.21875 428.3671875 C241.62470677 441.07098801 222.69799575 449.91128028 205.65442276 450.78375053 C200.86908322 450.93566365 196.08455405 450.92157154 191.29736328 450.90795898 C189.46758612 450.91367315 187.63781252 450.92064142 185.80804443 450.92875671 C180.87402806 450.94658809 175.9401905 450.94553867 171.00615168 450.93981433 C166.87131423 450.93670776 162.73651041 450.9428312 158.60167778 450.94885308 C148.83907793 450.96286394 139.07656565 450.96136586 129.31396484 450.94995117 C119.27724134 450.93847455 109.2407852 450.95254591 99.20409691 450.97934765 C90.5539714 451.00157301 81.90392939 451.00812663 73.25377738 451.00227123 C68.10192129 450.99891664 62.95023649 451.00121641 57.79840469 451.01852226 C52.95054758 451.03409867 48.10308358 451.0299184 43.25524139 451.01121712 C41.48771866 451.00756058 39.72016608 451.01055276 37.95267105 451.02110291 C23.94008503 451.09828527 11.0795789 449.43280945 -1.51953125 442.75390625 C-2.18267334 442.41174072 -2.84581543 442.0695752 -3.52905273 441.71704102 C-9.3223127 438.63110955 -14.35557314 434.92995665 -19.20703125 430.50390625 C-19.81546875 429.98699219 -20.42390625 429.47007812 -21.05078125 428.9375 C-33.05985737 418.04745142 -40.40815981 401.18213731 -43.20703125 385.50390625 C-43.250455 383.83780537 -43.26446838 382.16958292 -43.20703125 380.50390625 C-43.78557861 380.52485352 -44.36412598 380.54580078 -44.96020508 380.56738281 C-59.17383216 381.01425438 -70.76886853 381.08779185 -82.19921875 371.5625 C-89.08366143 364.50393717 -92.43837868 356.02479168 -92.49755859 346.24853516 C-92.50427582 345.54849869 -92.51099304 344.84846222 -92.51791382 344.12721252 C-92.53680871 341.82822442 -92.54081355 339.52952953 -92.54296875 337.23046875 C-92.54940226 335.62152998 -92.55613103 334.01259237 -92.56314087 332.40365601 C-92.5750921 329.03632903 -92.57882389 325.66910449 -92.57763672 322.30175781 C-92.57743357 318.00227876 -92.60474038 313.70346101 -92.63918114 309.40413857 C-92.66149674 306.0822553 -92.66547285 302.76053008 -92.66441727 299.43857956 C-92.66676603 297.85424902 -92.67554849 296.26991364 -92.691082 294.6856575 C-92.77518192 285.22318404 -92.70749382 277.94879137 -86.3828125 270.296875 C-85.76792969 269.76707031 -85.15304688 269.23726563 -84.51953125 268.69140625 C-83.91753906 268.14871094 -83.31554687 267.60601562 -82.6953125 267.046875 C-74.47344874 261.94854504 -66.07909445 262.12819757 -56.64453125 262.31640625 C-55.34966797 262.32994141 -54.05480469 262.34347656 -52.72070312 262.35742188 C-49.54903911 262.39253255 -46.37826035 262.44171278 -43.20703125 262.50390625 C-43.21369308 261.73541855 -43.22035492 260.96693085 -43.22721863 260.17515564 C-43.28780103 252.86592366 -43.33324178 245.55681663 -43.36246777 238.24739742 C-43.37799916 234.49123701 -43.3990022 230.73528727 -43.43334961 226.97924805 C-43.466398 223.341716 -43.48397789 219.70438414 -43.49166298 216.06671333 C-43.49712626 214.69190896 -43.50778915 213.31711318 -43.52422142 211.94239616 C-43.67676118 198.62852463 -41.74995417 186.62985065 -36.87890625 174.1875 C-35.45033882 168.48153592 -37.9254737 162.9198412 -39.70703125 157.50390625 C-40.15890751 156.13020243 -40.60689606 154.755213 -41.05078125 153.37890625 C-41.24865234 152.77820313 -41.44652344 152.1775 -41.65039062 151.55859375 C-42.87026735 147.05575056 -43.33464876 142.61750692 -43.3840332 137.96435547 C-43.40328606 136.37142166 -43.40328606 136.37142166 -43.42292786 134.74630737 C-43.43031479 133.61186188 -43.43770172 132.47741638 -43.4453125 131.30859375 C-43.45338425 130.12476105 -43.46145599 128.94092834 -43.46977234 127.72122192 C-43.48357965 125.21813405 -43.49431674 122.71502761 -43.50219727 120.21191406 C-43.51370493 117.66726109 -43.53413721 115.12263202 -43.5637207 112.578125 C-43.60663721 108.88394921 -43.62260077 105.19048868 -43.6328125 101.49609375 C-43.65032059 100.37379364 -43.66782867 99.25149353 -43.68586731 98.09518433 C-43.64515099 83.05229133 -37.52364474 70.28945672 -27.20703125 59.50390625 C-26.54703125 59.50390625 -25.88703125 59.50390625 -25.20703125 59.50390625 C-25.2227417 58.36961182 -25.23845215 57.23531738 -25.25463867 56.06665039 C-25.30929825 51.82307144 -25.34351132 47.57952307 -25.37182617 43.33569336 C-25.38683122 41.50556184 -25.40724184 39.67546579 -25.43334961 37.84545898 C-25.47010031 35.20157067 -25.48684062 32.55816133 -25.5 29.9140625 C-25.51548386 29.10743668 -25.53096771 28.30081085 -25.54692078 27.46974182 C-25.5490723 20.06232109 -24.04910797 12.76826225 -18.95703125 7.12890625 C-18.415625 6.50242187 -17.87421875 5.8759375 -17.31640625 5.23046875 C-12.05920072 0.92734867 -6.63093393 0.03074794 0 0 Z M-6.20703125 19.50390625 C-7.59011906 22.27008188 -7.31913321 24.51408625 -7.3046875 27.60546875 C-7.30146484 28.8171875 -7.29824219 30.02890625 -7.29492188 31.27734375 C-7.28654297 32.54835938 -7.27816406 33.819375 -7.26953125 35.12890625 C-7.26501953 36.40765625 -7.26050781 37.68640625 -7.25585938 39.00390625 C-7.24404328 42.17061917 -7.2275694 45.33723981 -7.20703125 48.50390625 C-6.35093262 48.34543213 -5.49483398 48.18695801 -4.61279297 48.02368164 C-1.28253148 47.51542883 1.9199582 47.29967327 5.28515625 47.1875 C6.48398438 47.14560547 7.6828125 47.10371094 8.91796875 47.06054688 C10.15546875 47.02123047 11.39296875 46.98191406 12.66796875 46.94140625 C14.55902344 46.87663086 14.55902344 46.87663086 16.48828125 46.81054688 C19.58974298 46.70481523 22.6912802 46.60272054 25.79296875 46.50390625 C25.90886037 42.23330007 25.98011677 37.96309641 26.04296875 33.69140625 C26.07648438 32.47646484 26.11 31.26152344 26.14453125 30.00976562 C26.15742188 28.84638672 26.1703125 27.68300781 26.18359375 26.484375 C26.20454102 25.41082764 26.22548828 24.33728027 26.24707031 23.23120117 C26.03428589 20.43402627 26.03428589 20.43402627 24.11230469 18.65283203 C21.31641447 17.26783631 19.40792535 17.1309431 16.29296875 17.140625 C15.24109375 17.14126953 14.18921875 17.14191406 13.10546875 17.14257812 C11.46578125 17.16674805 11.46578125 17.16674805 9.79296875 17.19140625 C8.69984375 17.18818359 7.60671875 17.18496094 6.48046875 17.18164062 C-0.1776346 17.05095473 -0.1776346 17.05095473 -6.20703125 19.50390625 Z M84.48046875 30.81640625 C80.83480596 35.10970175 76.79296875 40.63225957 76.79296875 46.50390625 C102.53296875 46.50390625 128.27296875 46.50390625 154.79296875 46.50390625 C151.14659337 35.56478012 145.89572807 26.64308671 135.26953125 21.21484375 C117.35477549 13.73691267 97.94400302 16.60903031 84.48046875 30.81640625 Z M205.79296875 20.50390625 C205.24080958 23.30541654 205.24080958 23.30541654 205.40234375 26.484375 C205.41523438 27.64775391 205.428125 28.81113281 205.44140625 30.00976562 C205.47492188 31.22470703 205.5084375 32.43964844 205.54296875 33.69140625 C205.56101562 34.91794922 205.5790625 36.14449219 205.59765625 37.40820312 C205.64485751 40.44088384 205.71069198 43.47200712 205.79296875 46.50390625 C206.57945801 46.5289624 207.36594727 46.55401855 208.17626953 46.57983398 C211.75698369 46.69623491 215.33746325 46.81876112 218.91796875 46.94140625 C220.15546875 46.98072266 221.39296875 47.02003906 222.66796875 47.06054688 C223.86679687 47.10244141 225.065625 47.14433594 226.30078125 47.1875 C227.4005127 47.22415771 228.50024414 47.26081543 229.63330078 47.29858398 C232.74425991 47.50074104 235.72941213 47.93680519 238.79296875 48.50390625 C238.87987128 44.06652913 238.93332801 39.62936991 238.98046875 35.19140625 C239.00560547 33.92876953 239.03074219 32.66613281 239.05664062 31.36523438 C239.07114258 29.55249023 239.07114258 29.55249023 239.0859375 27.703125 C239.10950317 26.02996216 239.10950317 26.02996216 239.13354492 24.32299805 C239.03426504 21.50016116 239.03426504 21.50016116 237.3996582 19.67895508 C232.82274352 16.33163851 227.37893823 17.27927661 221.91796875 17.25390625 C220.26474609 17.22296875 220.26474609 17.22296875 218.578125 17.19140625 C217.51722656 17.18625 216.45632813 17.18109375 215.36328125 17.17578125 C213.90559326 17.1617627 213.90559326 17.1617627 212.41845703 17.14746094 C209.26284659 17.57587746 207.93288344 18.13803203 205.79296875 20.50390625 Z M-15.20703125 73.50390625 C-15.76003906 74.02855469 -16.31304687 74.55320312 -16.8828125 75.09375 C-24.9278143 83.57793304 -26.35724404 94.28306852 -26.375 105.5703125 C-26.3783284 106.32626205 -26.3816568 107.08221161 -26.38508606 107.86106873 C-26.3901229 109.45530597 -26.39249539 111.04955364 -26.39233398 112.64379883 C-26.39450322 115.03550487 -26.41264578 117.42673572 -26.43164062 119.81835938 C-26.51903557 143.34895214 -21.88477452 164.57279349 -4.8828125 181.85546875 C-3.99980469 182.72945313 -3.11679688 183.6034375 -2.20703125 184.50390625 C-1.56121094 185.17164063 -0.91539062 185.839375 -0.25 186.52734375 C16.9573694 203.09740317 40.29335087 204.68655015 62.85546875 204.56640625 C64.50064968 204.56138205 66.1458321 204.55682077 67.79101562 204.55273438 C71.79170373 204.54179967 75.79231963 204.52458555 79.79296875 204.50390625 C79.84485352 203.55273926 79.89673828 202.60157227 79.95019531 201.62158203 C80.0272168 200.36845215 80.10423828 199.11532227 80.18359375 197.82421875 C80.25610352 196.58430176 80.32861328 195.34438477 80.40332031 194.06689453 C81.0606953 188.05578512 82.88704935 183.51571006 87.04296875 179.12890625 C93.3799863 175.38430497 98.93148266 174.0445246 106.16796875 174.10546875 C106.9367334 174.10259857 107.70549805 174.09972839 108.49755859 174.09677124 C110.11101017 174.09474419 111.72448709 174.10017815 113.33789062 174.11279297 C115.78702508 174.12886724 118.23450972 174.11289881 120.68359375 174.09375 C122.26172234 174.09573267 123.83984991 174.09957685 125.41796875 174.10546875 C126.13903809 174.09939606 126.86010742 174.09332336 127.60302734 174.08706665 C133.94778892 174.17348071 139.03876301 175.87642104 144.54296875 179.12890625 C149.74615482 184.62115822 150.96740596 190.38678246 151.40234375 197.82421875 C151.51787598 199.70391357 151.51787598 199.70391357 151.63574219 201.62158203 C151.68762695 202.57274902 151.73951172 203.52391602 151.79296875 204.50390625 C156.52114387 204.5540828 161.24915738 204.58998492 165.97753906 204.61376953 C167.57945461 204.62370538 169.18135264 204.63725872 170.78320312 204.65478516 C194.18616857 204.90406486 216.08593519 201.44775957 233.68652344 184.61401367 C235.06711524 183.25584609 236.43059413 181.88034669 237.79296875 180.50390625 C238.79457031 179.53517578 238.79457031 179.53517578 239.81640625 178.546875 C255.64034779 162.11432033 257.98046674 139.67157125 257.97827148 117.9934082 C257.98046051 115.57550507 257.99867546 113.15805733 258.01757812 110.74023438 C258.0728886 95.71347941 256.65548811 83.96652005 246.06640625 72.55078125 C237.80981318 65.11701017 227.31523281 63.19607054 216.56636047 63.23648071 C215.67031591 63.2319496 214.77427135 63.22741849 213.85107392 63.22275007 C210.8659133 63.21014848 207.88093613 63.2117237 204.89575195 63.21337891 C202.74820218 63.20739095 200.60065455 63.20058479 198.45310974 63.19302368 C192.63057069 63.17538225 186.80809047 63.17066904 180.98552728 63.16939211 C177.34371536 63.16796874 173.70191831 63.16369557 170.06011009 63.15839767 C157.34320505 63.13990251 144.62634188 63.13172629 131.90942383 63.13330078 C120.07495164 63.13450156 108.24066201 63.11341018 96.40623599 63.08181345 C86.23015086 63.05561725 76.05412521 63.04493491 65.87800664 63.0462116 C59.80728591 63.04672031 53.73672742 63.04108754 47.66604042 63.0198555 C41.95237179 63.00041725 36.23901924 63.00038696 30.52533913 63.01488876 C28.43607621 63.01697112 26.34679322 63.01231042 24.25756454 63.00016785 C9.84293043 62.9218603 -4.09620016 62.9524305 -15.20703125 73.50390625 Z M-23.20703125 189.50390625 C-26.29645839 201.86161481 -26.35703072 214.24084651 -26.35229492 226.9140625 C-26.35529371 228.53181027 -26.35869788 230.14955732 -26.36247253 231.76730347 C-26.37124042 236.12676756 -26.37364749 240.48621199 -26.37428832 244.84568405 C-26.37500258 247.57625275 -26.37714389 250.30681656 -26.37978554 253.03738403 C-26.38901287 262.58254307 -26.39312343 272.12768821 -26.39233398 281.67285156 C-26.39173289 290.54108583 -26.40229773 299.40925933 -26.41807765 308.27747822 C-26.43118649 315.91946095 -26.43651653 323.5614239 -26.43587857 331.20341778 C-26.43562471 335.75543551 -26.43841454 340.30739908 -26.44905663 344.85940552 C-26.45879496 349.14080251 -26.45877781 353.42209414 -26.45153999 357.70349503 C-26.45050147 359.26587199 -26.45281302 360.82825573 -26.45890045 362.39062119 C-26.52623653 380.88384894 -23.8990026 396.64699411 -12.20703125 411.50390625 C-11.59085938 412.32890625 -10.9746875 413.15390625 -10.33984375 414.00390625 C0.25567493 426.42356184 15.91888929 432.34050131 31.82844925 433.67459059 C36.8993502 433.94001252 41.97063552 433.91319327 47.046875 433.89208984 C48.71931295 433.89616677 50.3917482 433.90151488 52.06417847 433.90802002 C56.56009038 433.92156628 61.05579318 433.91644809 65.55170822 433.90688276 C70.28520977 433.89921969 75.01869492 433.90635005 79.75219727 433.91104126 C87.69713513 433.91647963 95.64198899 433.90935783 103.58691406 433.89501953 C112.73637278 433.87869675 121.88563086 433.88398662 131.03508472 433.90049875 C138.92941648 433.91416857 146.82368828 433.91600655 154.71802807 433.90818274 C159.4159848 433.90353629 164.11384762 433.90279704 168.8117981 433.91279221 C173.23119496 433.92154013 177.65033633 433.91529917 182.06970596 433.89810944 C183.6791962 433.89418595 185.28870843 433.89520634 186.89818954 433.90189743 C206.43396747 433.9755458 224.02102818 430.93614062 238.6171875 416.74609375 C239.33519531 416.00617188 240.05320312 415.26625 240.79296875 414.50390625 C241.43878906 413.86710938 242.08460938 413.2303125 242.75 412.57421875 C256.56473716 398.06723986 257.94527072 379.54948808 257.93823242 360.62719727 C257.94122818 359.01815209 257.94463166 357.40910762 257.94841003 355.80006409 C257.9572159 351.44415953 257.95958682 347.08827463 257.96022582 342.73236203 C257.96093873 340.00311599 257.96307769 337.27387487 257.96572304 334.54463005 C257.97496805 325.00020915 257.97905934 315.45580218 257.97827148 305.91137695 C257.97767224 297.05355014 257.98819615 288.19578453 258.00401515 279.33797318 C258.01715544 271.70448542 258.02245261 264.07101749 258.02181607 256.43751854 C258.02156281 251.89142989 258.02431755 247.34539557 258.03499413 242.79931831 C258.04478393 238.51385501 258.04468102 234.22849673 258.03747749 229.9430294 C258.03644473 228.38436858 258.038715 226.82570084 258.04483795 225.2670517 C258.07449183 217.18408749 257.80427281 209.22680405 256.90278625 201.18882751 C256.825255 200.47713049 256.74772374 199.76543347 256.66784304 199.03216988 C256.2285271 195.49453753 255.66745548 192.56486889 253.79296875 189.50390625 C252.93638672 190.43009766 252.93638672 190.43009766 252.0625 191.375 C235.47255661 208.70344643 213.51574347 220.23224317 189.25222778 220.76966858 C188.29887543 220.78638107 187.34552307 220.80309357 186.36328125 220.8203125 C185.37294891 220.8410936 184.38261658 220.86187469 183.36227417 220.88328552 C180.21423957 220.94840945 177.06612508 221.00749254 173.91796875 221.06640625 C171.77733565 221.10962684 169.63671049 221.15324224 167.49609375 221.19726562 C162.26180199 221.30405253 157.02743163 221.40588637 151.79296875 221.50390625 C151.74470947 222.44999756 151.6964502 223.39608887 151.64672852 224.37084961 C151.57252686 225.62003174 151.4983252 226.86921387 151.421875 228.15625 C151.31854858 230.00851196 151.31854858 230.00851196 151.21313477 231.89819336 C150.50593377 237.96713674 148.53422099 243.15426147 143.82421875 247.19140625 C137.9003044 251.08173806 132.82903971 251.66680548 125.80859375 251.70703125 C124.64695709 251.71558136 124.64695709 251.71558136 123.46185303 251.7243042 C121.82451739 251.73373476 120.18716293 251.74028045 118.54980469 251.74414062 C116.06541106 251.75381882 113.58185497 251.78484835 111.09765625 251.81640625 C109.50130696 251.82293996 107.90495179 251.82818898 106.30859375 251.83203125 C105.5749762 251.84437805 104.84135864 251.85672485 104.08551025 251.8694458 C97.61649687 251.84199491 92.2099375 250.42649503 87.04296875 246.31640625 C82.2941287 240.38035619 80.63129859 235.91479627 80.18359375 228.21875 C80.10657227 226.96054443 80.02955078 225.70233887 79.95019531 224.40600586 C79.89831055 223.44831299 79.84642578 222.49062012 79.79296875 221.50390625 C78.51881104 221.49456055 77.24465332 221.48521484 75.93188477 221.47558594 C71.12116858 221.43515855 66.31105719 221.36926474 61.50073242 221.29638672 C59.4344063 221.26847857 57.36797941 221.24711721 55.30151367 221.23291016 C26.49593331 221.02321168 3.54036102 214.13871046 -17.7109375 193.82421875 C-20.17456256 191.40983627 -20.17456256 191.40983627 -23.20703125 189.50390625 Z M97.79296875 193.50390625 C97.59298551 196.4213976 97.51321988 199.24192554 97.52734375 202.16015625 C97.5254303 203.01822876 97.52351685 203.87630127 97.52154541 204.76037598 C97.52018331 206.57609347 97.52388147 208.3918207 97.53222656 210.20751953 C97.54292584 212.99273475 97.53233222 215.77730493 97.51953125 218.5625 C97.52085284 220.32422018 97.52341522 222.08593996 97.52734375 223.84765625 C97.52329529 224.68413696 97.51924683 225.52061768 97.51507568 226.38244629 C97.35268309 230.91863556 97.35268309 230.91863556 99.79296875 234.50390625 C103.06497514 234.81657481 103.06497514 234.81657481 106.91796875 234.76953125 C107.97201904 234.77240143 107.97201904 234.77240143 109.04736328 234.77532959 C110.53353229 234.776691 112.0197132 234.77299757 113.50585938 234.76464844 C115.78412521 234.75394779 118.06160252 234.76454464 120.33984375 234.77734375 C121.78255383 234.77602215 123.22526341 234.77345974 124.66796875 234.76953125 C125.98539063 234.76727539 127.3028125 234.76501953 128.66015625 234.76269531 C131.89231005 234.83556064 131.89231005 234.83556064 133.79296875 232.50390625 C133.99295199 229.5864149 134.07271762 226.76588696 134.05859375 223.84765625 C134.0605072 222.98958374 134.06242065 222.13151123 134.06439209 221.24743652 C134.06575419 219.43171903 134.06205603 217.6159918 134.05371094 215.80029297 C134.04301166 213.01507775 134.05360528 210.23050757 134.06640625 207.4453125 C134.06508466 205.68359232 134.06252228 203.92187254 134.05859375 202.16015625 C134.06264221 201.32367554 134.06669067 200.48719482 134.07086182 199.62536621 C134.23325441 195.08917694 134.23325441 195.08917694 131.79296875 191.50390625 C128.52096236 191.19123769 128.52096236 191.19123769 124.66796875 191.23828125 C123.61391846 191.23541107 123.61391846 191.23541107 122.53857422 191.23248291 C121.05240521 191.2311215 119.5662243 191.23481493 118.08007812 191.24316406 C115.80181229 191.25386471 113.52433498 191.24326786 111.24609375 191.23046875 C109.80338367 191.23179035 108.36067409 191.23435276 106.91796875 191.23828125 C105.60054687 191.24053711 104.283125 191.24279297 102.92578125 191.24511719 C99.69362745 191.17225186 99.69362745 191.17225186 97.79296875 193.50390625 Z M-74.20703125 283.50390625 C-75.4793895 286.64993089 -75.34547393 289.86789148 -75.36816406 293.23120117 C-75.37777161 294.38307419 -75.38737915 295.5349472 -75.39727783 296.72172546 C-75.40152771 297.96339981 -75.40577759 299.20507416 -75.41015625 300.484375 C-75.41585632 301.7669368 -75.4215564 303.0494986 -75.4274292 304.3709259 C-75.43792151 307.08688755 -75.44377503 309.80281978 -75.44726562 312.51879883 C-75.45273199 315.97738574 -75.476727 319.43557533 -75.50523758 322.8940382 C-75.52849503 326.21580848 -75.53032275 329.53752763 -75.53515625 332.859375 C-75.54750305 334.09092819 -75.55984985 335.32248138 -75.5725708 336.59135437 C-75.55326374 344.10312764 -75.3513308 351.55923954 -70.48828125 357.66015625 C-69.6065625 358.3253125 -69.6065625 358.3253125 -68.70703125 359.00390625 C-68.11921875 359.46796875 -67.53140625 359.93203125 -66.92578125 360.41015625 C-59.70546033 365.00490592 -52.26002257 362.50390625 -43.20703125 362.50390625 C-43.20703125 335.44390625 -43.20703125 308.38390625 -43.20703125 280.50390625 C-67.44036458 277.80390625 -67.44036458 277.80390625 -74.20703125 283.50390625 Z M274.79296875 280.50390625 C274.79296875 307.56390625 274.79296875 334.62390625 274.79296875 362.50390625 C292.38724176 364.07501289 292.38724176 364.07501289 300.79296875 358.50390625 C307.05478351 352.24209149 307.02900134 345.08090681 307.09651184 336.69113159 C307.09514473 334.80021286 307.09514473 334.80021286 307.09375 332.87109375 C307.10017769 330.90609421 307.10017769 330.90609421 307.10673523 328.90139771 C307.11416473 326.13946462 307.11392874 323.37765948 307.10864258 320.61572266 C307.10283237 317.08393363 307.11983143 313.5526664 307.14298725 310.02096367 C307.16128421 306.63765187 307.15753938 303.25445474 307.15625 299.87109375 C307.16545975 298.6064328 307.17466949 297.34177185 307.18415833 296.03878784 C307.17481514 294.27137741 307.17481514 294.27137741 307.1652832 292.46826172 C307.16591263 291.43458466 307.16654205 290.40090759 307.16719055 289.33590698 C306.73306854 286.05059905 305.73877904 284.16402621 303.79296875 281.50390625 C295.14170038 277.17827206 284.46538084 280.50390625 274.79296875 280.50390625 Z " fill="#FFFFFF" transform="translate(140.20703125,30.49609375)"/>
<path d="M0 0 C1.36425046 -0.00435392 2.72849848 -0.00953932 4.09274292 -0.01548767 C7.77880131 -0.02881633 11.46475679 -0.02946319 15.15083456 -0.02692437 C18.23707937 -0.02585042 21.32330371 -0.03074888 24.40954411 -0.03552979 C31.69557119 -0.04660391 38.98154671 -0.0470743 46.26757812 -0.04101562 C53.76343867 -0.03497794 61.2591114 -0.04728639 68.75493991 -0.06858569 C75.20956864 -0.08624648 81.66413782 -0.09219599 88.11878979 -0.08894795 C91.96548458 -0.08714197 95.81204539 -0.08970233 99.65871811 -0.10366249 C103.27857509 -0.11630931 106.89814101 -0.11423268 110.51799393 -0.1012516 C112.46500673 -0.09778799 114.4120287 -0.10901327 116.35900879 -0.12081909 C126.60148684 -0.05994301 135.32126212 1.36610456 143.35205078 8.04418945 C151.00313075 16.38153041 152.55318666 25.94284227 152.56689453 36.74731445 C152.57022293 37.66620956 152.57355133 38.58510468 152.57698059 39.53184509 C152.58203547 41.4759776 152.58438936 43.42011874 152.58422852 45.36425781 C152.58640027 48.30264085 152.60453051 51.24063912 152.62353516 54.17895508 C152.68476154 74.30627391 150.52006556 89.81547052 136.59423828 105.27856445 C126.10689578 115.33831145 112.36084674 119.57913584 98.15014648 119.56518555 C97.15548874 119.57190277 96.16083099 119.57862 95.1360321 119.58554077 C91.8655388 119.60445283 88.59525153 119.6084418 85.32470703 119.6105957 C83.03557757 119.61702919 80.74644893 119.62375796 78.45732117 119.63076782 C73.66350398 119.64272426 68.86975877 119.64645041 64.07592773 119.64526367 C57.96105462 119.64506078 51.84664778 119.67234012 45.73188496 119.70680809 C41.00381897 119.72914945 36.27586382 119.73309896 31.54775047 119.73204422 C29.29490747 119.73439016 27.04206094 119.7431563 24.7892704 119.75870895 C6.29537634 119.87441641 -10.01954126 118.21664413 -24.35107422 105.1496582 C-36.33641679 92.07740956 -39.71997432 77.61214638 -39.80419922 60.47387695 C-39.80989929 59.55685501 -39.81559937 58.63983307 -39.82147217 57.69502258 C-39.83086825 55.76462946 -39.83743453 53.83422069 -39.84130859 51.90380859 C-39.85101196 48.9809114 -39.88208615 46.058719 -39.91357422 43.13598633 C-40.05203958 19.19567109 -40.05203958 19.19567109 -31.55419922 9.21606445 C-22.53773189 0.25369592 -12.09684523 -0.02369777 0 0 Z M-18.60107422 22.2746582 C-22.10860308 27.29387739 -22.04030669 32.01550494 -21.99951172 37.9152832 C-22.0023819 38.83750671 -22.00525208 39.75973022 -22.00820923 40.7098999 C-22.01024491 42.65645971 -22.00474985 44.60304021 -21.9921875 46.54956055 C-21.97620034 49.50137124 -21.99201516 52.45179744 -22.01123047 55.40356445 C-22.00924652 57.30330702 -22.00539971 59.20304873 -21.99951172 61.1027832 C-22.00558441 61.97292053 -22.0116571 62.84305786 -22.01791382 63.73956299 C-21.899212 74.29327987 -18.84264333 83.60753596 -11.62841797 91.4074707 C-1.81432508 100.78884345 8.93397743 102.42774863 22.02709961 102.41992188 C23.2605587 102.42495979 23.2605587 102.42495979 24.51893616 102.43009949 C27.21462551 102.43953267 29.91025224 102.44154872 32.60595703 102.44262695 C34.49631271 102.44584479 36.38666814 102.44920926 38.27702332 102.45271301 C42.23180722 102.45868518 46.18656933 102.46055488 50.14135742 102.45996094 C55.18461481 102.45985942 60.22773109 102.47350993 65.27095509 102.49073315 C69.17368703 102.50190462 73.07638541 102.50387857 76.9791317 102.50335121 C78.83728204 102.50452364 80.69543346 102.50890354 82.55356789 102.51668358 C104.92569848 102.69793242 104.92569848 102.69793242 124.14892578 92.2121582 C132.38354582 83.33359868 134.54692114 73.21329438 134.60205078 61.59106445 C134.60775085 60.6579393 134.61345093 59.72481415 134.61932373 58.76341248 C134.62874884 56.79410935 134.63529779 54.82479064 134.63916016 52.85546875 C134.64888087 49.85103836 134.67993396 46.84728807 134.71142578 43.84301758 C134.71795512 41.92570391 134.72320587 40.00838538 134.72705078 38.09106445 C134.74557098 36.75018517 134.74557098 36.75018517 134.76446533 35.38221741 C134.74636623 30.29038749 134.42396573 26.57526463 131.39892578 22.2746582 C125.73050648 16.99058402 119.57021764 17.70934221 112.14501953 17.75708008 C110.79427334 17.75165505 109.44353308 17.74453025 108.09280396 17.73583984 C104.43569985 17.71764834 100.77904854 17.72465641 97.1219368 17.73735619 C93.28904275 17.74750566 89.45618664 17.73808511 85.62329102 17.73181152 C79.18742943 17.72454076 72.75175163 17.73410772 66.31591797 17.75317383 C58.8824271 17.77494162 51.44937512 17.76788984 44.01589489 17.74586821 C37.62588598 17.72769782 31.23600896 17.72516384 24.84598255 17.73562288 C21.03289919 17.74184887 17.22002191 17.74271829 13.4069519 17.72947693 C9.82149659 17.71789499 6.23660536 17.72598601 2.65121078 17.74905396 C0.71296711 17.75683856 -1.22532445 17.74500509 -3.1635437 17.73254395 C-11.68752868 17.80484022 -11.68752868 17.80484022 -18.60107422 22.2746582 Z " fill="#FFFFFF" transform="translate(199.60107421875,307.725341796875)"/>
<path d="M0 0 C0.73578372 -0.00623996 1.47156744 -0.01247993 2.22964764 -0.01890898 C4.69029154 -0.03483886 7.1499448 -0.02223543 9.6105957 -0.00964355 C11.37660296 -0.0150647 13.14260569 -0.02218732 14.90859985 -0.03088379 C19.70198782 -0.04912102 24.49503145 -0.04204796 29.28842545 -0.02936745 C34.30427225 -0.01924187 39.32008954 -0.0286319 44.3359375 -0.03491211 C52.75924982 -0.0421898 61.18242187 -0.03259761 69.60571289 -0.0135498 C79.34483043 0.00821915 89.08361302 0.00116787 98.82272243 -0.02085543 C107.18379554 -0.03900595 115.54476779 -0.04156945 123.90585423 -0.03110075 C128.89988762 -0.02486391 133.89376357 -0.02403544 138.88778687 -0.0372467 C143.58286599 -0.0487995 148.27751317 -0.04078993 152.97254562 -0.01766968 C154.69587868 -0.01237953 156.41924807 -0.01390161 158.14256668 -0.02272034 C160.49478685 -0.03364778 162.84562206 -0.01994773 165.19775391 0 C167.17217216 0.00226215 167.17217216 0.00226215 169.18647766 0.00457001 C173.16301364 0.59115063 174.81268795 1.65804349 177.59887695 4.50793457 C178.91046464 8.27874916 178.78543604 9.99735182 177.41137695 13.75793457 C175.480428 16.68765022 174.784158 17.31374526 171.59887695 18.50793457 C168.92025375 18.75403023 168.92025375 18.75403023 165.80291748 18.7484436 C164.61943726 18.75119293 163.43595703 18.75394226 162.21661377 18.7567749 C160.92189148 18.74958435 159.62716919 18.7423938 158.29321289 18.73498535 C156.91333016 18.73442108 155.53344683 18.7347381 154.15356445 18.73587036 C150.41006642 18.73644427 146.66669652 18.72468377 142.92322826 18.71072245 C139.01012509 18.6982215 135.09701899 18.69704509 131.18389893 18.69467163 C123.77498345 18.68845499 116.36612698 18.67204169 108.95723748 18.65197265 C100.52200517 18.62961937 92.08677004 18.61862166 83.65151548 18.60858178 C66.30060184 18.58767562 48.94974564 18.55249607 31.59887695 18.50793457 C31.65108398 20.0451416 31.65108398 20.0451416 31.7043457 21.61340332 C31.7324973 22.97406393 31.75979599 24.33474237 31.78637695 25.69543457 C31.81151367 26.36896973 31.83665039 27.04250488 31.86254883 27.7364502 C31.92830849 32.23002704 31.30861565 34.91900705 28.59887695 38.50793457 C26.07093783 41.03587369 24.2267353 40.85906879 20.7668457 41.06652832 C17.18639914 40.14399884 15.78719949 38.43831804 13.59887695 35.50793457 C13.01204282 32.53905283 13.12231146 29.70666731 13.28637695 26.69543457 C13.30893555 25.90717285 13.33149414 25.11891113 13.35473633 24.3067627 C13.41333534 22.37299528 13.50300868 20.4402129 13.59887695 18.50793457 C13.01920166 18.52364502 12.43952637 18.53935547 11.84228516 18.55554199 C9.19874956 18.61816248 6.55537041 18.65700975 3.91137695 18.69543457 C2.99936523 18.72057129 2.08735352 18.74570801 1.14770508 18.77160645 C-3.85676627 18.82620068 -7.36118175 18.83255427 -11.40112305 15.50793457 C-13.48719231 12.85293733 -13.3999176 11.44042953 -13.33862305 8.00793457 C-11.43896388 0.91587366 -6.77077738 0.00775749 0 0 Z " fill="#FFFFFF" transform="translate(173.401123046875,123.4920654296875)"/>
</svg>
